<?xml version="1.0" encoding="utf-8"?>
<svg version="1.1" xmlns:xlink="http://www.w3.org/1999/xlink" width="375px" height="150px" xmlns="http://www.w3.org/2000/svg">
  <g>
    <path d="M 0 0  L 375 0  L 375 150  L 0 150  L 0 0  " fill-rule="nonzero" fill="#cccccc" stroke="none" />
    <path d="M 11 11  L 364 11  L 364 139  L 11 139  L 11 11  " fill-rule="nonzero" fill="#ffffff" stroke="none" />
    <path d="M 206.25 45  C 199.95 45  195 40.05  195 33.75  C 195 27.45  199.95 22.5  206.25 22.5  C 212.55 22.5  217.5 27.45  217.5 33.75  C 217.5 40.05  212.55 45  206.25 45  " fill-rule="nonzero" fill="#cccccc" stroke="none" />
    <path d="M 15 135  L 15 69  L 101.25 39  L 222 106.2  L 291 57  L 360 106.2  L 360 135  L 15 135  " fill-rule="nonzero" fill="#169bd5" stroke="none" />
  </g>
</svg>