<?xml version="1.0" encoding="utf-8"?>
<svg version="1.1" xmlns:xlink="http://www.w3.org/1999/xlink" width="100px" height="60px" xmlns="http://www.w3.org/2000/svg">
  <defs>
    <linearGradient gradientUnits="userSpaceOnUse" x1="50" y1="850" x2="50" y2="910" id="LinearGradient387">
      <stop id="Stop388" stop-color="#ffffff" offset="0" />
      <stop id="Stop389" stop-color="#f2f2f2" offset="0" />
      <stop id="Stop390" stop-color="#e4e4e4" offset="1" />
      <stop id="Stop391" stop-color="#ffffff" offset="1" />
    </linearGradient>
  </defs>
  <g transform="matrix(1 0 0 1 0 -850 )">
    <path d="M 50 850  C 78 850  100 863.2  100 880  C 100 896.8  78 910  50 910  C 22 910  0 896.8  0 880  C 0 863.2  22 850  50 850  Z " fill-rule="nonzero" fill="url(#LinearGradient387)" stroke="none" />
    <path d="M 50 850.5  C 77.72 850.5  99.5 863.48  99.5 880  C 99.5 896.52  77.72 909.5  50 909.5  C 22.28 909.5  0.5 896.52  0.5 880  C 0.5 863.48  22.28 850.5  50 850.5  Z " stroke-width="1" stroke="#797979" fill="none" />
  </g>
</svg>