<?xml version="1.0" encoding="utf-8"?>
<svg version="1.1" xmlns:xlink="http://www.w3.org/1999/xlink" width="150px" height="85px" xmlns="http://www.w3.org/2000/svg">
  <g transform="matrix(1 0 0 1 -113 -4803 )">
    <path d="M 113 4803  L 263 4803  L 263 4888  L 113 4888  L 113 4803  " fill-rule="nonzero" fill="#cccccc" stroke="none" />
    <path d="M 119 4809  L 257 4809  L 257 4882  L 119 4882  L 119 4809  " fill-rule="nonzero" fill="#ffffff" stroke="none" />
    <path d="M 197.375 4828.5  C 193.805 4828.5  191 4825.695  191 4822.125  C 191 4818.555  193.805 4815.75  197.375 4815.75  C 200.945 4815.75  203.75 4818.555  203.75 4822.125  C 203.75 4825.695  200.945 4828.5  197.375 4828.5  " fill-rule="nonzero" fill="#cccccc" stroke="none" />
    <path d="M 121 4880  L 121 4842.05  L 154.5 4824.8  L 201.4 4856.54  L 228.2 4835.15  L 255 4856.54  L 255 4880  L 121 4880  " fill-rule="nonzero" fill="#169bd5" stroke="none" />
  </g>
</svg>