<?xml version="1.0" encoding="utf-8"?>
<svg version="1.1" xmlns:xlink="http://www.w3.org/1999/xlink" width="100px" height="100px" xmlns="http://www.w3.org/2000/svg">
  <g>
    <path d="M 0 0  L 100 0  L 100 100  L 0 100  L 0 0  " fill-rule="nonzero" fill="#cccccc" stroke="none" />
    <path d="M 7 7  L 93 7  L 93 93  L 7 93  L 7 7  " fill-rule="nonzero" fill="#ffffff" stroke="none" />
    <path d="M 59.5 30  C 55.3 30  52 26.7  52 22.5  C 52 18.3  55.3 15  59.5 15  C 63.7 15  67 18.3  67 22.5  C 67 26.7  63.7 30  59.5 30  " fill-rule="nonzero" fill="#cccccc" stroke="none" />
    <path d="M 10 91  L 10 46.45  L 30.25 26.2  L 58.6 42.4  L 74.8 38.35  L 91 42.4  L 91 91  L 10 91  " fill-rule="nonzero" fill="#169bd5" stroke="none" />
  </g>
</svg>