<?xml version="1.0" encoding="utf-8"?>
<svg version="1.1" xmlns:xlink="http://www.w3.org/1999/xlink" width="378px" height="670px" xmlns="http://www.w3.org/2000/svg">
  <defs>
    <mask fill="white" id="clip607">
      <path d="M 375 0  L 375 667  L 0 667  L 0 74.9999999999998  L 75 0  L 375 0  Z " fill-rule="evenodd" />
    </mask>
  </defs>
  <g transform="matrix(1 0 0 1 1 -1179 )">
    <path d="M 375 0  L 375 667  L 0 667  L 0 74.9999999999998  L 75 0  L 375 0  Z M 75 0  L 0 75  L 75 75  L 75 0  Z " fill-rule="nonzero" fill="#999999" stroke="none" transform="matrix(1 0 0 1 0 1180 )" />
    <path d="M 375 0  L 375 667  L 0 667  L 0 74.9999999999998  L 75 0  L 375 0  Z " stroke-width="4" stroke="#ff0000" fill="none" transform="matrix(1 0 0 1 0 1180 )" mask="url(#clip607)" />
    <path d="M 0 75  L 75 75  L 75 0  " stroke-width="2" stroke="#ff0000" fill="none" transform="matrix(1 0 0 1 0 1180 )" mask="url(#clip607)" />
  </g>
</svg>