<?xml version="1.0" encoding="utf-8"?>
<svg version="1.1" xmlns:xlink="http://www.w3.org/1999/xlink" width="26px" height="26px" xmlns="http://www.w3.org/2000/svg">
  <g transform="matrix(1 0 0 1 -339 -862 )">
    <path d="M 16.8932291666667 16.6223958333333  C 17.9314236111111 15.6519097222222  19.1614583333333 15.1666666666667  20.5833333333333 15.1666666666667  C 22.0842013888889 15.1666666666667  23.3621961805556 15.6942274305556  24.4173177083333 16.7493489583333  C 25.4724392361111 17.8044704861111  26 19.0824652777778  26 20.5833333333333  C 26 22.0842013888889  25.4724392361111 23.3621961805556  24.4173177083333 24.4173177083333  C 23.3621961805556 25.4724392361111  22.0842013888889 26  20.5833333333333 26  C 19.0824652777778 26  17.8044704861111 25.4724392361111  16.7493489583333 24.4173177083333  C 15.6942274305556 23.3621961805556  15.1666666666667 22.0842013888889  15.1666666666667 20.5833333333333  C 15.1666666666667 20.4479166666667  15.1779513888889 20.2560763888889  15.2005208333333 20.0078125  L 9.10677083333333 16.9609375  C 8.06857638888889 17.9314236111111  6.83854166666667 18.4166666666667  5.41666666666667 18.4166666666667  C 3.91579861111111 18.4166666666667  2.63780381944444 17.8891059027778  1.58268229166667 16.833984375  C 0.527560763888889 15.7788628472222  0 14.5008680555556  0 13  C 0 11.4991319444444  0.527560763888889 10.2211371527778  1.58268229166667 9.166015625  C 2.63780381944444 8.11089409722222  3.91579861111111 7.58333333333333  5.41666666666667 7.58333333333333  C 6.83854166666667 7.58333333333333  8.06857638888889 8.06857638888889  9.10677083333333 9.0390625  L 15.2005208333333 5.9921875  C 15.1779513888889 5.74392361111111  15.1666666666667 5.55208333333333  15.1666666666667 5.41666666666667  C 15.1666666666667 3.91579861111111  15.6942274305556 2.63780381944444  16.7493489583333 1.58268229166667  C 17.8044704861111 0.527560763888887  19.0824652777778 0  20.5833333333333 0  C 22.0842013888889 0  23.3621961805556 0.527560763888887  24.4173177083333 1.58268229166667  C 25.4724392361111 2.63780381944444  26 3.91579861111111  26 5.41666666666667  C 26 6.91753472222222  25.4724392361111 8.19552951388889  24.4173177083333 9.25065104166667  C 23.3621961805556 10.3057725694444  22.0842013888889 10.8333333333333  20.5833333333333 10.8333333333333  C 19.1614583333333 10.8333333333333  17.9314236111111 10.3480902777778  16.8932291666667 9.37760416666667  L 10.7994791666667 12.4244791666667  C 10.8220486111111 12.6727430555556  10.8333333333333 12.8645833333333  10.8333333333333 13  C 10.8333333333333 13.1354166666667  10.8220486111111 13.3272569444444  10.7994791666667 13.5755208333333  L 16.8932291666667 16.6223958333333  Z " fill-rule="nonzero" fill="#333333" stroke="none" transform="matrix(1 0 0 1 339 862 )" />
  </g>
</svg>