<?xml version="1.0" encoding="utf-8"?>
<svg version="1.1" xmlns:xlink="http://www.w3.org/1999/xlink" width="31px" height="26px" xmlns="http://www.w3.org/2000/svg">
  <g transform="matrix(1 0 0 1 -296 -862 )">
    <path d="M 11.2151442307692 21.9744318181818  C 11.6870993589744 22.4422348484848  11.9230769230769 22.9962121212121  11.9230769230769 23.6363636363636  C 11.9230769230769 24.2765151515152  11.6870993589744 24.8304924242424  11.2151442307692 25.2982954545455  C 10.7431891025641 25.7660984848485  10.1842948717949 26  9.53846153846154 26  C 8.89262820512821 26  8.33373397435898 25.7660984848485  7.86177884615385 25.2982954545455  C 7.38982371794872 24.8304924242424  7.15384615384615 24.2765151515152  7.15384615384615 23.6363636363636  C 7.15384615384615 22.9962121212121  7.38982371794872 22.4422348484848  7.86177884615385 21.9744318181818  C 8.33373397435898 21.5066287878788  8.89262820512821 21.2727272727273  9.53846153846154 21.2727272727273  C 10.1842948717949 21.2727272727273  10.7431891025641 21.5066287878788  11.2151442307692 21.9744318181818  Z M 27.9074519230769 21.9744318181818  C 28.379407051282 22.4422348484848  28.6153846153846 22.9962121212121  28.6153846153846 23.6363636363636  C 28.6153846153846 24.2765151515152  28.379407051282 24.8304924242424  27.9074519230769 25.2982954545455  C 27.4354967948718 25.7660984848485  26.8766025641026 26  26.2307692307692 26  C 25.5849358974359 26  25.0260416666667 25.7660984848485  24.5540865384615 25.2982954545455  C 24.0821314102564 24.8304924242424  23.8461538461538 24.2765151515152  23.8461538461538 23.6363636363636  C 23.8461538461538 22.9962121212121  24.0821314102564 22.4422348484848  24.5540865384615 21.9744318181818  C 25.0260416666667 21.5066287878788  25.5849358974359 21.2727272727273  26.2307692307692 21.2727272727273  C 26.8766025641026 21.2727272727273  27.4354967948718 21.5066287878788  27.9074519230769 21.9744318181818  Z M 30.6460336538462 2.71448863636364  C 30.8820112179487 2.94839015151515  31 3.22537878787878  31 3.54545454545455  L 31 13  C 31 13.2954545454545  30.8975360576923 13.5570549242424  30.6926081730769 13.7848011363636  C 30.4876802884615 14.0125473484848  30.2361778846154 14.1448863636364  29.9381009615385 14.1818181818182  L 10.4885817307692 16.4346590909091  C 10.6500400641026 17.1732954545455  10.7307692307692 17.6041666666667  10.7307692307692 17.7272727272727  C 10.7307692307692 17.9242424242424  10.5817307692308 18.3181818181818  10.2836538461538 19  L 27.4230769230769 19  C 27.7459935897436 18.9090909090909  28.0254407051282 19.0260416666667  28.2614182692308 19.2599431818182  C 28.4973958333333 19.4938446969697  28.6153846153846 19.7708333333333  28.6153846153846 20.0909090909091  C 28.6153846153846 20.4109848484848  28.4973958333333 20.6879734848485  28.2614182692308 20.921875  C 28.0254407051282 21.1557765151515  27.7459935897436 21.2727272727273  27.4230769230769 21  L 8.34615384615384 21  C 8.02323717948718 21.2727272727273  7.74379006410256 21.1557765151515  7.5078125 20.921875  C 7.27183493589744 20.6879734848485  7.15384615384615 20.4109848484848  7.15384615384615 20.0909090909091  C 7.15384615384615 19.9554924242424  7.20352564102564 19.7616003787879  7.30288461538462 19.5092329545455  C 7.40224358974359 19.256865530303  7.50160256410256 19.0352746212121  7.60096153846154 18.8444602272727  C 7.70032051282051 18.6536458333333  7.83383413461539 18.4074337121212  8.00150240384616 18.1058238636364  C 8.16917067307692 17.8042140151515  8.26542467948718 17.6226325757576  8.29026442307692 17.5610795454545  L 4.99278846153846 2.36363636363636  L 1.19230769230769 2.36363636363636  C 0.869391025641026 2.36363636363636  0.58994391025641 2.2466856060606  0.353966346153846 2.01278409090909  C 0.117988782051282 1.77888257575757  0 1.50189393939394  0 1.18181818181818  C 0 0.861742424242423  0.117988782051282 0.584753787878784  0.353966346153846 0.350852272727274  C 0.58994391025641 0.116950757575755  0.869391025641026 0  1.19230769230769 0  L 5.96153846153846 0  C 6.16025641025641 0  6.33723958333333 0.0400094696969679  6.49248798076923 0.12002840909091  C 6.64773637820513 0.200047348484848  6.76883012820513 0.295454545454545  6.85576923076923 0.40625  C 6.94270833333333 0.517045454545455  7.0234375 0.667850378787875  7.09795673076923 0.858664772727274  C 7.17247596153846 1.04947916666666  7.22215544871795 1.20951704545455  7.24699519230769 1.33877840909091  C 7.27183493589744 1.46803977272727  7.30598958333333 1.64962121212121  7.34945913461539 1.88352272727273  C 7.39292868589744 2.11742424242424  7.4208733974359 2.27746212121212  7.43329326923077 2.36363636363636  L 29.8076923076923 2.36363636363636  C 30.130608974359 2.36363636363636  30.4100560897436 2.48058712121212  30.6460336538462 2.71448863636364  Z " fill-rule="nonzero" fill="#333333" stroke="none" transform="matrix(1 0 0 1 296 862 )" />
  </g>
</svg>