<?xml version="1.0" encoding="utf-8"?>
<svg version="1.1" xmlns:xlink="http://www.w3.org/1999/xlink" width="375px" height="170px" xmlns="http://www.w3.org/2000/svg">
  <g transform="matrix(1 0 0 1 0 -154 )">
    <path d="M 0 154  L 375 154  L 375 324  L 0 324  L 0 154  " fill-rule="nonzero" fill="#cccccc" stroke="none" />
    <path d="M 12 166  L 363 166  L 363 312  L 12 312  L 12 166  " fill-rule="nonzero" fill="#ffffff" stroke="none" />
    <path d="M 207.75 205  C 200.61 205  195 199.39  195 192.25  C 195 185.11  200.61 179.5  207.75 179.5  C 214.89 179.5  220.5 185.11  220.5 192.25  C 220.5 199.39  214.89 205  207.75 205  " fill-rule="nonzero" fill="#cccccc" stroke="none" />
    <path d="M 17 308  L 17 232.65  L 102.5 198.4  L 222.2 270.736  L 290.6 218.95  L 359 270.736  L 359 308  L 17 308  " fill-rule="nonzero" fill="#169bd5" stroke="none" />
  </g>
</svg>