<?xml version="1.0" encoding="utf-8"?>
<svg version="1.1" xmlns:xlink="http://www.w3.org/1999/xlink" width="60px" height="60px" xmlns="http://www.w3.org/2000/svg">
  <g>
    <path d="M 0 0  L 60 0  L 60 60  L 0 60  L 0 0  " fill-rule="nonzero" fill="#cccccc" stroke="none" />
    <path d="M 4 4  L 56 4  L 56 56  L 4 56  L 4 4  " fill-rule="nonzero" fill="#ffffff" stroke="none" />
    <path d="M 35.7 18  C 33.18 18  31.2 16.02  31.2 13.5  C 31.2 10.98  33.18 9  35.7 9  C 38.22 9  40.2 10.98  40.2 13.5  C 40.2 16.02  38.22 18  35.7 18  " fill-rule="nonzero" fill="#cccccc" stroke="none" />
    <path d="M 6 55  L 6 28.05  L 18.25 15.8  L 35.4 25.6  L 45.2 23.15  L 55 25.6  L 55 55  L 6 55  " fill-rule="nonzero" fill="#169bd5" stroke="none" />
  </g>
</svg>