<?xml version="1.0" encoding="utf-8"?>
<svg version="1.1" xmlns:xlink="http://www.w3.org/1999/xlink" width="51px" height="81px" xmlns="http://www.w3.org/2000/svg">
  <defs>
    <linearGradient gradientUnits="userSpaceOnUse" x1="100" y1="1160" x2="100" y2="1240" id="LinearGradient522">
      <stop id="Stop523" stop-color="#ffffff" offset="0" />
      <stop id="Stop524" stop-color="#f2f2f2" offset="0" />
      <stop id="Stop525" stop-color="#e4e4e4" offset="1" />
      <stop id="Stop526" stop-color="#ffffff" offset="1" />
    </linearGradient>
  </defs>
  <g transform="matrix(1 0 0 1 -75 -1160 )">
    <path d="M 100 1160.5  C 105.32 1160.5  109.5 1164.68  109.5 1170  C 109.5 1175.32  105.32 1179.5  100 1179.5  C 94.68 1179.5  90.5 1175.32  90.5 1170  C 90.5 1164.68  94.68 1160.5  100 1160.5  Z " fill-rule="nonzero" fill="url(#LinearGradient522)" stroke="none" />
    <path d="M 100 1160.5  C 105.32 1160.5  109.5 1164.68  109.5 1170  C 109.5 1175.32  105.32 1179.5  100 1179.5  C 94.68 1179.5  90.5 1175.32  90.5 1170  C 90.5 1164.68  94.68 1160.5  100 1160.5  Z " stroke-width="1" stroke="#797979" fill="none" />
    <path d="M 75 1190  L 125 1190  M 100 1180  L 100 1215  M 80 1240  L 100 1215  M 100 1215  L 120 1240  " stroke-width="1" stroke="#797979" fill="none" />
  </g>
</svg>