<?xml version="1.0" encoding="utf-8"?>
<svg version="1.1" xmlns:xlink="http://www.w3.org/1999/xlink" width="12px" height="12px" viewBox="252 143.5  12 12" xmlns="http://www.w3.org/2000/svg">
  <path d="M 258 143.5  C 261.36 143.5  264 146.14  264 149.5  C 264 152.86  261.36 155.5  258 155.5  C 254.64 155.5  252 152.86  252 149.5  C 252 146.14  254.64 143.5  258 143.5  Z " fill-rule="nonzero" fill="#ffffff" stroke="none" />
  <path d="M 258 144  C 261.08 144  263.5 146.42  263.5 149.5  C 263.5 152.58  261.08 155  258 155  C 254.92 155  252.5 152.58  252.5 149.5  C 252.5 146.42  254.92 144  258 144  Z " stroke-width="1" stroke="#797979" fill="none" />
  <path d="M 258 152.5  C 256.32 152.5  255 151.18  255 149.5  C 255 147.82  256.32 146.5  258 146.5  C 259.68 146.5  261 147.82  261 149.5  C 261 151.18  259.68 152.5  258 152.5  " fill-rule="nonzero" fill="#797979" stroke="none" />
</svg>