<?xml version="1.0" encoding="utf-8"?>
<svg version="1.1" xmlns:xlink="http://www.w3.org/1999/xlink" width="12px" height="12px" viewBox="72 143.5  12 12" xmlns="http://www.w3.org/2000/svg">
  <path d="M 78 143.5  C 81.36 143.5  84 146.14  84 149.5  C 84 152.86  81.36 155.5  78 155.5  C 74.64 155.5  72 152.86  72 149.5  C 72 146.14  74.64 143.5  78 143.5  Z " fill-rule="nonzero" fill="#ffffff" stroke="none" />
  <path d="M 78 144  C 81.08 144  83.5 146.42  83.5 149.5  C 83.5 152.58  81.08 155  78 155  C 74.92 155  72.5 152.58  72.5 149.5  C 72.5 146.42  74.92 144  78 144  Z " stroke-width="1" stroke="#797979" fill="none" />
  <path d="M 78 152.5  C 76.32 152.5  75 151.18  75 149.5  C 75 147.82  76.32 146.5  78 146.5  C 79.68 146.5  81 147.82  81 149.5  C 81 151.18  79.68 152.5  78 152.5  " fill-rule="nonzero" fill="#797979" stroke="none" />
</svg>